<svg enable-background="new 0 0 232 167" height="268.459145" viewBox="0 0 232 167" width="372.496158" xmlns="http://www.w3.org/2000/svg"><path d="m222.16 70.17c.75 0 1.19.1 1.19.75-.02.46-.32.64-.91.65h-1.61l.01-1.41h1.32zm-1.32 2.44h.92l1.25 2.27 1.49-.01-1.36-2.4c.96-.08 1.52-.5 1.52-1.58 0-1.29-.74-1.73-1.92-1.77l-3.23.01v5.75l1.32-.01zm1.1-4.65c2.4 0 4.04 1.58 4.05 3.95 0 2.4-1.65 4.09-4.03 4.09-2.39.01-3.97-1.63-3.98-4.01-.01-2.39 1.56-4.03 3.96-4.03zm.03-1.29c-3.77.01-5.34 2.86-5.34 5.33.02 2.52 1.61 5.3 5.35 5.3 3.2-.01 5.34-2.41 5.34-5.32-.01-2.77-1.86-5.32-5.35-5.31"/><path d="m51.96 78.95 6.18-.01.06 29.21-6.21.02z"/><path d="m51.95 67.07 6.18-.01.02 9.25-6.2.01z"/><path d="m194.55 66.87 6.18-.01.07 41.09-6.22.01z"/><path d="m205.11 66.85h6.18v41.09h-6.18z" transform="matrix(1 -.00173147 .00173147 1 -.151 .3606)"/><path d="m35.61 90.58c2.16 0 3.91-1.48 3.87-3.6 0-2.12-1.73-3.59-3.89-3.58l-24.91.04v7.21zm.97 13.21c2.51 0 4.57-1.78 4.57-4.28 0-2.49-2.08-4.53-4.6-4.52l-25.87.04v8.82zm-32.1-24.78 34.36-.04c5.75-.01 7.39 4.53 7.3 7.26-.1 2.72-1.19 5.2-2.75 5.95 2.84 1.33 4.66 4.78 4.61 7.65-.25 7.76-7.77 8.36-10.95 8.36l-32.51.04z"/><path d="m161.21 78.8c-2.26 0-7.66 1.18-7.75 6.28-.09 4.38 2.26 6.36 3.75 6.85-1.92.81-3.67 4.2-3.66 7.17 0 2.97 1.11 8.91 10.78 8.9l26.44-.03-.02-4.38-25.7.02c-2.53.01-4.59-1.76-4.58-4.27-.03-2.49 2.03-4.52 4.58-4.52l24.36-.04-.02-4.39-24.95.04c-2.17.01-3.92-1.5-3.92-3.63-.04-2.15 1.74-3.64 3.91-3.64l26.3-.04.01-4.37z"/><path d="m142.4 87.99 6.29-.01c-.01-7.19-3.28-9.25-12.15-9.15l-17.13.02c-3.85 0-10.6 1.75-10.61 7.69.02 5.94 2.28 8.34 9.22 8.33l20.48-.03c2.33-.01 4.74 1.47 4.75 4.2.01 2.72-1.39 4.7-5.68 4.63l-16.12.02c-2.1 0-6.45-.24-6.45-4.79l-6.19.01c.02 3.56.75 9.16 10.2 9.15l20.25-.03c4 0 10.5-1.91 10.5-9.25-.01-7.34-6.12-8.34-9.55-8.33l-20.46.03c-3.34 0-4.43-2.06-4.43-3.62 0-1.58 1.08-3.62 4.43-3.63l17.8-.03c2.94.01 4.85 1.16 4.85 4.79z"/><path d="m98.19 87.99 6.29-.01c-.01-7.19-3.28-9.25-12.15-9.15l-17.13.02c-3.85 0-10.6 1.75-10.61 7.69.02 5.94 2.28 8.34 9.22 8.33l20.48-.03c2.33-.01 4.75 1.47 4.75 4.2.01 2.72-1.39 4.7-5.68 4.63l-16.11.02c-2.1 0-6.45-.24-6.45-4.79l-6.19.01c.02 3.56.75 9.16 10.2 9.15l20.25-.03c4 0 10.5-1.91 10.5-9.25-.01-7.34-6.12-8.34-9.55-8.33l-20.47.03c-3.34 0-4.43-2.06-4.43-3.62 0-1.58 1.07-3.62 4.43-3.63l17.8-.03c2.94.01 4.85 1.16 4.85 4.79z"/><g fill="#ec2027"><path d="m192.83 160.46c9.65-.02 5.78-9.13 4.05-12.2-2.59-4.47-15.93-28.38-15.93-28.38l-143.85.21s-13.32 23.95-15.87 28.43c-1.74 3.07-5.65 11.93 3.98 11.92z"/><path d="m64.26 67.3 87.23-.02s-21.86-40.13-27.09-49.36c-4.74-8.41-7.62-12.49-16.83-12.47-9.2.01-11.77 4.1-16.65 12.73-4.76 8.44-26.66 49.12-26.66 49.12z"/></g></svg>