<svg height="290" width="1600" xmlns="http://www.w3.org/2000/svg"><path d="m760.255 231.035v-171.919c0-39.328 24.348-59.397 59.397-58.609h12.603c35.003 0 59.768 17.705 59.768 56.661v29.89c0 7.861-5.113 12.197-13.739 13.774l-27.56 5.994v-50.075a18.482 18.482 0 0 0 -20.869-20.047h-7.826a18.17 18.17 0 0 0 -20.452 20.047v176.649a18.168 18.168 0 0 0 20.452 20.046h7.873a18.48 18.48 0 0 0 20.87-20.046v-27.942h41.286l-.464 25.577c0 38.956-24.348 58.504-59.409 58.504h-12.857c-34.83 0-59.073-19.652-59.073-58.504zm-174.4 0-.348-25.577h41.31l.418 27.942c0 12.974 8.985 20.046 22.492 20.046h7.873a19.767 19.767 0 0 0 22.504-20.046v-27.142c0-26.771-15.756-31.072-49.194-49.959-42.098-22.029-45.217-35.409-45.217-65.693v-31.513c0-39.328 24.742-59.397 59.803-58.609h12.602c35.015 0 61.369 19.71 61.369 58.609v24c0 7.861-5.113 12.197-13.774 13.774l-27.548 5.901v-46.017c0-12.974-8.997-20.047-22.505-20.047h-7.872a18.46 18.46 0 0 0 -20.87 20.047v33.055c0 18.887 9.438 24.742 22.482 32.649l34.434 17.299c32.603 16.139 37.345 34.62 37.345 61.762v29.519c0 38.956-26.353 58.504-61.368 58.504h-12.927c-34.806 0-61.009-19.652-61.009-58.504zm920.928 56.661h-75.525v-285.241h75.525c35.014-.788 59.408 19.293 59.408 58.644v167.965c0 38.608-23.49 58.655-57.437 58.655zm-34.227-36.87h31.861a18.18 18.18 0 0 0 20.452-20.069v-171.919a18.175 18.175 0 0 0 -5.336-15.015 18.176 18.176 0 0 0 -15.116-5.043h-31.861zm-195.629 36.87v-285.241h115.258v39.362h-74.736v206.516h74.736v39.351zm-173.982 0v-285.241h75.513c35.014-.788 59.397 19.293 59.397 58.644v70.017c0 39.316-24.348 59.397-59.397 58.62h-28.313v-22.817c0-11.038 3.942-14.562 14.168-14.562h11.803a18.192 18.192 0 0 0 20.475-20.07v-73.542a18.188 18.188 0 0 0 -5.367-15.001c-4-3.91-9.576-5.762-15.12-5.022h-31.861v248.974zm-68.916 0-11.026-61.38h-50.864l4.73-24.348c1.566-8.672 5.925-12.985 13.763-12.985h25.6l-21.658-120.047-40.128 218.76h-40.486l55.85-285.241h50.736l53.994 285.217-40.51.024zm-521.832 0-68.846-182.887v182.887h-38.597v-285.241h36.58l66.492 176.371v-176.371h38.655v285.217zm-176.417 0-11.038-61.38h-50.76l4.73-24.348c1.578-8.672 5.926-12.985 13.786-12.985h25.577l-21.645-120.047-40.197 218.76h-40.476l55.895-285.241h50.736l53.879 285.217zm-184.348 0v-184.905l-42.052 123.908h-29.496l-42.11-123.908v184.905h-37.774v-285.241h37.774l57.45 155.015 56.242-155.015h37.75v285.217l-37.785.024zm1171.907-127.084v-24.348c0-11.015 3.942-14.563 14.191-14.563h47.977v38.945zm267.386-138.98-6.644-16.058v16.058h-2.145v-19.177h3.235l5.902 14.875 5.715-14.875h3.212v19.107h-2.249v-15.988l-6.319 16.058h-.707zm-18.829-.07-.163-17.182h-5.542v-1.925h13.496v1.925h-5.565v17.182h-2.226z" fill-rule="evenodd"/></svg>