<?xml version="1.0" standalone="no"?>
<!DOCTYPE svg PUBLIC "-//W3C//DTD SVG 20010904//EN"
 "http://www.w3.org/TR/2001/REC-SVG-20010904/DTD/svg10.dtd">
<svg version="1.0" xmlns="http://www.w3.org/2000/svg"
 width="647.000000pt" height="461.000000pt" viewBox="0 0 647.000000 461.000000"
 preserveAspectRatio="xMidYMid meet">
<metadata>
Created by potrace 1.16, written by Peter Selinger 2001-2019
</metadata>
<g transform="translate(0.000000,461.000000) scale(0.100000,-0.100000)"
fill="#1A1714" stroke="none">
<path d="M1767 4469 c-50 -38 -93 -151 -105 -277 -7 -66 -8 -67 -46 -85 -38
-18 -314 -87 -348 -87 -10 0 -52 35 -95 79 -52 52 -100 90 -143 112 -57 29
-74 33 -140 32 -126 -1 -219 -47 -356 -176 -94 -88 -149 -165 -222 -312 -91
-182 -138 -323 -173 -525 -22 -121 -18 -726 4 -910 38 -302 87 -526 178 -808
58 -181 101 -266 168 -332 118 -118 243 -101 411 57 176 165 307 421 424 828
126 441 141 546 141 1005 0 265 -4 381 -13 425 -27 120 -65 233 -123 359 -32
71 -58 131 -56 132 2 2 61 17 133 33 71 16 154 38 184 49 l55 19 1 -221 c1
-255 -2 -240 114 -741 86 -373 153 -784 171 -1058 11 -160 24 -220 51 -225 44
-8 67 126 68 384 0 106 4 145 14 160 14 18 17 15 45 -48 17 -36 60 -165 96
-285 127 -421 126 -418 158 -421 23 -3 30 2 43 33 8 20 26 94 40 163 28 140
60 224 94 242 34 18 70 6 183 -59 136 -78 188 -95 280 -89 52 4 93 14 147 38
73 32 80 33 260 40 262 10 302 28 420 186 88 117 133 161 182 176 35 10 40 9
64 -13 38 -34 61 -92 73 -182 12 -88 15 -386 3 -403 -4 -6 -23 -19 -42 -29
-55 -28 -202 -129 -270 -186 -160 -133 -332 -416 -439 -722 -69 -200 -93 -308
-99 -444 -4 -118 -3 -125 22 -178 23 -46 33 -56 67 -66 79 -24 177 28 319 170
126 125 187 222 269 428 125 316 204 631 218 877 3 59 11 112 17 118 6 5 62
39 124 75 195 115 224 151 242 299 14 115 33 180 67 231 60 89 114 110 313
123 80 5 199 21 265 35 66 14 197 41 290 61 259 53 421 98 605 168 190 73 233
93 225 106 -3 5 -82 -18 -176 -50 -221 -77 -299 -98 -629 -165 -151 -31 -315
-65 -365 -75 -49 -11 -146 -24 -215 -30 -192 -17 -251 -38 -314 -111 -48 -57
-74 -131 -92 -263 -19 -136 -38 -170 -132 -230 -75 -48 -195 -116 -205 -116
-4 0 -7 44 -7 98 0 327 -60 512 -165 512 -64 0 -115 -39 -213 -164 -94 -119
-145 -160 -221 -177 -21 -5 -109 -13 -197 -18 -141 -8 -171 -13 -266 -45 -179
-60 -240 -51 -437 67 -79 47 -103 57 -141 57 -77 0 -119 -59 -145 -206 -30
-162 -46 -234 -55 -239 -4 -3 -18 32 -29 78 -73 275 -157 542 -194 613 -22 43
-55 74 -77 74 -37 0 -44 -36 -51 -270 -5 -164 -11 -234 -21 -260 l-15 -35 -7
45 c-3 25 -10 113 -16 195 -17 261 -81 658 -160 999 -120 521 -113 473 -118
742 l-4 241 60 46 c124 96 192 266 129 325 -29 27 -64 28 -100 1z m88 -33 c22
-33 5 -98 -45 -175 -37 -58 -105 -120 -117 -108 -8 9 14 140 33 199 18 55 63
108 93 108 11 0 28 -11 36 -24z m-839 -256 c53 -26 205 -163 193 -173 -2 -3
-67 -26 -143 -51 -167 -57 -258 -101 -399 -195 -217 -146 -386 -343 -478 -560
-16 -38 -29 -57 -29 -44 0 43 41 235 71 326 35 110 141 332 197 414 49 73 139
166 214 222 129 96 261 118 374 61z m263 -295 c143 -295 166 -424 158 -884 -7
-391 -25 -506 -138 -903 -69 -241 -110 -352 -183 -499 -107 -213 -231 -362
-356 -426 -177 -92 -294 5 -400 333 -48 151 -140 499 -140 534 0 11 8 24 18
29 15 9 15 10 -4 11 -24 0 -23 -5 -51 220 -13 108 -18 217 -17 430 0 263 1
291 22 363 46 167 150 335 297 482 166 166 338 269 589 354 82 28 152 48 156
46 4 -3 26 -43 49 -90z m2857 -2377 c-22 -171 -61 -333 -131 -543 -111 -333
-183 -476 -315 -618 -177 -191 -298 -232 -344 -116 -72 179 82 692 312 1039
117 175 213 267 409 389 l78 48 3 -43 c2 -24 -4 -94 -12 -156z"/>
</g>
</svg>
